<?xml version="1.0" encoding="utf-8"?>
<!-- Generator: Adobe Illustrator 16.0.0, SVG Export Plug-In . SVG Version: 6.00 Build 0)  -->
<!DOCTYPE svg PUBLIC "-//W3C//DTD SVG 1.1//EN" "http://www.w3.org/Graphics/SVG/1.1/DTD/svg11.dtd">
<svg version="1.1" xmlns="http://www.w3.org/2000/svg" xmlns:xlink="http://www.w3.org/1999/xlink" x="0px" y="0px" width="259px"
	 height="281.949px" viewBox="0 0 259 281.949" enable-background="new 0 0 259 281.949" xml:space="preserve">
<g id="background_1_">
</g>
<g id="icons">
	<g id="gluten-free_1_">
		<g id="label_32_">
			<path fill="#E9F2F1" stroke="#4D5152" stroke-width="4" stroke-miterlimit="10" d="M204.383,145.637c0,41.42-33.58,75-75,75
				c-41.418,0-75-33.58-75-75s33.582-75,75-75C170.803,70.637,204.383,104.217,204.383,145.637z"/>
			
				<line fill="none" stroke="#4D5152" stroke-width="4" stroke-miterlimit="10" x1="77.659" y1="93.912" x2="181.107" y2="197.361"/>
		</g>
		<g id="gluten_1_">
			<g>
				<path fill="#A66A6A" stroke="#4D5152" stroke-width="4" stroke-miterlimit="10" d="M128.164,134.956
					c0.25,0.235,0.572,0.354,0.891,0.354c0.305,0,0.605-0.104,0.847-0.315c0.317-0.275,7.761-6.793,7.953-15.272
					c0.188-8.475-6.952-15.321-7.257-15.608c-0.485-0.458-1.233-0.476-1.738-0.042c-0.318,0.275-7.76,6.797-7.949,15.27
					C120.723,127.818,127.861,134.669,128.164,134.956z"/>
				<path fill="#A66A6A" stroke="#4D5152" stroke-width="4" stroke-miterlimit="10" d="M103.859,175.192
					c-0.326-0.02-0.657,0.095-0.9,0.313c-0.245,0.224-0.389,0.538-0.401,0.869c-0.015,0.508-0.108,12.332,6.802,19.835
					c8.515,9.239,18.18,7.808,20,7.5c0.564-0.094-0.059-0.547-0.028-1.12C129.343,202.358,130.245,176.876,103.859,175.192z"/>
				<path fill="#A66A6A" stroke="#4D5152" stroke-width="4" stroke-miterlimit="10" d="M154.907,175.192
					c0.325-0.02,0.657,0.095,0.899,0.313c0.246,0.224,0.388,0.538,0.402,0.869c0.012,0.508,0.106,12.332-6.805,19.835
					c-8.515,9.239-18.181,7.808-20,7.5c-0.563-0.094,0.061-0.547,0.028-1.12C129.422,202.358,128.521,176.876,154.907,175.192z"/>
				<path fill="#A66A6A" stroke="#4D5152" stroke-width="4" stroke-miterlimit="10" d="M107.574,150.971
					c-0.328-0.031-0.658,0.074-0.908,0.29c-0.249,0.214-0.406,0.521-0.425,0.853c-0.026,0.451-0.399,10.965,5.6,17.765
					c5.242,5.946,12.566,7.417,12.566,7.417c1.221,0,3.636,0.087,4.968-0.097c0.567-0.077-0.028-0.601,0.02-1.168
					C129.41,175.827,130.687,153.166,107.574,150.971z"/>
				<path fill="#A66A6A" stroke="#4D5152" stroke-width="4" stroke-miterlimit="10" d="M151.191,150.971
					c0.326-0.031,0.658,0.074,0.905,0.29c0.254,0.214,0.406,0.521,0.428,0.853c0.027,0.451,0.4,10.965-5.599,17.765
					c-5.245,5.946-12.568,7.417-12.568,7.417c-1.225,0-3.637,0.087-4.967-0.097c-0.568-0.077,0.026-0.601-0.021-1.168
					C129.354,175.827,128.078,153.166,151.191,150.971z"/>
				<path fill="#A66A6A" stroke="#4D5152" stroke-width="4" stroke-miterlimit="10" d="M127.203,153.09c0.003,0,0.003,0,0.003,0
					c0.248,0,0.489-0.005,0.74-0.012c0.574-0.015,1.061-0.426,1.169-0.987c0.037-0.185,3.423-21.265-17.934-25.737
					c-0.322-0.069-0.656-0.003-0.931,0.187c-0.274,0.184-0.463,0.472-0.521,0.797c-0.078,0.447-1.847,11.004,3.879,17.824
					C116.665,148.799,121.241,153.09,127.203,153.09z"/>
				<path fill="#A66A6A" stroke="#4D5152" stroke-width="4" stroke-miterlimit="10" d="M131.559,153.09L131.559,153.09
					c-0.248,0-0.492-0.005-0.741-0.012c-0.572-0.015-1.058-0.426-1.17-0.987c-0.033-0.185-3.418-21.265,17.933-25.737
					c0.324-0.069,0.664-0.003,0.938,0.187c0.274,0.184,0.457,0.472,0.518,0.797c0.077,0.447,1.848,11.004-3.88,17.824
					C142.098,148.799,137.524,153.09,131.559,153.09z"/>
			</g>
			<g>
				
					<line fill="none" stroke="#4D5152" stroke-width="4" stroke-linecap="round" stroke-miterlimit="10" x1="109.068" y1="117.227" x2="109.068" y2="98.05"/>
				
					<line fill="none" stroke="#4D5152" stroke-width="4" stroke-linecap="round" stroke-miterlimit="10" x1="119.226" y1="103.118" x2="119.225" y2="88.255"/>
				
					<line fill="none" stroke="#4D5152" stroke-width="4" stroke-linecap="round" stroke-miterlimit="10" x1="139.539" y1="103.118" x2="139.539" y2="88.255"/>
				
					<line fill="none" stroke="#4D5152" stroke-width="4" stroke-linecap="round" stroke-miterlimit="10" x1="129.383" y1="94.926" x2="129.383" y2="80.632"/>
				
					<line fill="none" stroke="#4D5152" stroke-width="4" stroke-linecap="round" stroke-miterlimit="10" x1="149.696" y1="117.227" x2="149.696" y2="98.05"/>
			</g>
			
				<line fill="none" stroke="#4D5152" stroke-width="4" stroke-miterlimit="10" x1="129.383" y1="137.511" x2="129.383" y2="210.641"/>
		</g>
	</g>
</g>
<g id="titles">
</g>
<g id="header_1_">
</g>
</svg>
