<?xml version="1.0" encoding="utf-8"?>
<!-- Generator: Adobe Illustrator 16.0.0, SVG Export Plug-In . SVG Version: 6.00 Build 0)  -->
<!DOCTYPE svg PUBLIC "-//W3C//DTD SVG 1.1//EN" "http://www.w3.org/Graphics/SVG/1.1/DTD/svg11.dtd">
<svg version="1.1" xmlns="http://www.w3.org/2000/svg" xmlns:xlink="http://www.w3.org/1999/xlink" x="0px" y="0px" width="259px"
	 height="281.949px" viewBox="0 0 259 281.949" enable-background="new 0 0 259 281.949" xml:space="preserve">
<g id="background_1_">
</g>
<g id="icons">
	<g id="nut-free">
		<g id="label">
			<circle fill="#A4BFBF" stroke="#4D5152" stroke-width="4" stroke-miterlimit="10" cx="125.787" cy="139.912" r="75"/>
			<line fill="none" stroke="#4D5152" stroke-width="4" stroke-miterlimit="10" x1="74.063" y1="88.188" x2="177.51" y2="191.636"/>
		</g>
		<g id="hazelnut">
			<path fill="#A66A6A" stroke="#4D5152" stroke-width="4" stroke-miterlimit="10" d="M158.398,125.834v23.421
				c0,14.765-5.514,25.753-16.385,32.661c-7.271,4.623-14.568,5.791-16.127,5.996c-1.578-0.357-9.049-2.236-16.391-7.291
				c-10.83-7.455-16.322-18.01-16.322-31.366v-23.421"/>
			<path fill="#657371" stroke="#4D5152" stroke-width="4" stroke-miterlimit="1" d="M88.164,121.912
				c0-9.678,7.873-17.55,17.549-17.55h4.672c5.18,0,9.896-3.038,12.02-7.739c0.643-1.427,1.238-2.867,1.768-4.278
				c0.135-0.357,0.41-0.433,0.619-0.433c0.205,0,0.479,0.073,0.625,0.421c0.77,1.814,1.705,3.662,2.779,5.488
				c2.373,4.034,6.74,6.541,11.398,6.541h6.264c9.678,0,17.551,7.872,17.551,17.55c0,2.039-1.455,3.744-3.383,4.133h-68.48
				C89.619,125.656,88.164,123.951,88.164,121.912z"/>
			<path fill="none" stroke="#4D5152" stroke-width="4" stroke-linecap="round" stroke-linejoin="round" stroke-miterlimit="1" d="
				M95.885,120.237c0.041-0.317,1.113-7.761,12.156-9.621"/>
			<path fill="none" stroke="#4D5152" stroke-width="4" stroke-linecap="round" stroke-miterlimit="1" d="M116.5,174.162
				c-4.373-2.68-7.813-6.641-10.227-11.773c-2.037-4.328-3.113-9.255-3.113-14.248v-7.216"/>
		</g>
	</g>
</g>
<g id="titles">
</g>
<g id="header_1_">
</g>
</svg>
