<?xml version="1.0" encoding="utf-8"?>
<!-- Generator: Adobe Illustrator 16.0.0, SVG Export Plug-In . SVG Version: 6.00 Build 0)  -->
<!DOCTYPE svg PUBLIC "-//W3C//DTD SVG 1.1//EN" "http://www.w3.org/Graphics/SVG/1.1/DTD/svg11.dtd">
<svg version="1.1" xmlns="http://www.w3.org/2000/svg" xmlns:xlink="http://www.w3.org/1999/xlink" x="0px" y="0px" width="259px"
	 height="281.949px" viewBox="0 0 259 281.949" enable-background="new 0 0 259 281.949" xml:space="preserve">
<g id="background_1_">
</g>
<g id="icons">
	<g id="organic-food_2_">
		<circle id="label_5_" fill="#A4BFBF" stroke="#4D5152" stroke-width="4" stroke-miterlimit="10" cx="129.5" cy="144.06" r="75"/>
		<g id="plate_1_">
			<circle id="plate_4_" fill="#FFFFFF" cx="129.5" cy="144.06" r="46"/>
		</g>
		<g id="leaves_fork_2_">
			<g>
				<path fill="#A66A6A" stroke="#4D5152" stroke-width="4" stroke-miterlimit="10" d="M135.073,120.272L135.073,120.272
					c-3.223,3.226-8.452,3.226-11.677,0c-8.697-8.698,5.484-24.213,5.484-24.213S145.294,110.054,135.073,120.272z"/>
				<g>
					<path fill="#A66A6A" stroke="#4D5152" stroke-width="4" stroke-miterlimit="10" d="M109.887,146.351L109.887,146.351
						c4.561,0,8.258-3.697,8.258-8.258c0-12.301-22.709-14.451-22.709-14.451S95.436,146.351,109.887,146.351z"/>
					
						<line fill="none" stroke="#4D5152" stroke-width="4" stroke-linecap="round" stroke-miterlimit="10" x1="107.927" y1="136.134" x2="115.726" y2="143.931"/>
					
						<line fill="none" stroke="#4D5152" stroke-width="4" stroke-linecap="round" stroke-miterlimit="10" x1="116.081" y1="144.286" x2="128.469" y2="156.673"/>
				</g>
				<g>
					<path fill="#A66A6A" stroke="#4D5152" stroke-width="4" stroke-miterlimit="10" d="M149.113,146.351L149.113,146.351
						c-4.561,0-8.26-3.697-8.26-8.258c0-12.301,22.711-14.451,22.711-14.451S163.564,146.351,149.113,146.351z"/>
					
						<line fill="none" stroke="#4D5152" stroke-width="4" stroke-linecap="round" stroke-miterlimit="10" x1="151.5" y1="136.06" x2="143.273" y2="143.931"/>
					
						<line fill="none" stroke="#4D5152" stroke-width="4" stroke-linecap="round" stroke-miterlimit="10" x1="142.919" y1="144.286" x2="130.251" y2="157.31"/>
				</g>
			</g>
			<g>
				
					<line fill="none" stroke="#4D5152" stroke-width="4" stroke-linecap="round" stroke-miterlimit="10" x1="129.5" y1="113.06" x2="129.5" y2="192.06"/>
				<path fill="none" stroke="#4D5152" stroke-width="4" stroke-linecap="round" stroke-miterlimit="10" d="M138.928,192.06v-17.93
					c0-3.035-4.242-5.518-9.428-5.518l0,0c-5.186,0-9.428,2.482-9.428,5.518v17.93"/>
			</g>
			<g>
				
					<line fill="none" stroke="#4D5152" stroke-width="4" stroke-linecap="round" stroke-miterlimit="10" x1="135.917" y1="143.56" x2="135.917" y2="150.394"/>
				
					<line fill="none" stroke="#4D5152" stroke-width="4" stroke-linecap="round" stroke-miterlimit="10" x1="144.418" y1="152.394" x2="135.584" y2="152.394"/>
			</g>
			<g>
				
					<line fill="none" stroke="#4D5152" stroke-width="4" stroke-linecap="round" stroke-miterlimit="10" x1="123.084" y1="143.56" x2="123.084" y2="150.394"/>
				
					<line fill="none" stroke="#4D5152" stroke-width="4" stroke-linecap="round" stroke-miterlimit="10" x1="114.584" y1="152.394" x2="123.418" y2="152.394"/>
			</g>
			<g>
				
					<line fill="none" stroke="#4D5152" stroke-width="4" stroke-linecap="round" stroke-miterlimit="10" x1="123.371" y1="129.021" x2="128.203" y2="133.851"/>
				
					<line fill="none" stroke="#4D5152" stroke-width="4" stroke-linecap="round" stroke-miterlimit="10" x1="135.629" y1="129.255" x2="129.383" y2="135.501"/>
			</g>
		</g>
	</g>
</g>
<g id="titles">
</g>
<g id="header_1_">
</g>
</svg>
