<?xml version="1.0" encoding="utf-8"?>
<!-- Generator: Adobe Illustrator 16.0.0, SVG Export Plug-In . SVG Version: 6.00 Build 0)  -->
<!DOCTYPE svg PUBLIC "-//W3C//DTD SVG 1.1//EN" "http://www.w3.org/Graphics/SVG/1.1/DTD/svg11.dtd">
<svg version="1.1" xmlns="http://www.w3.org/2000/svg" xmlns:xlink="http://www.w3.org/1999/xlink" x="0px" y="0px" width="259px"
	 height="281.949px" viewBox="0 0 259 281.949" enable-background="new 0 0 259 281.949" xml:space="preserve">
<g id="background_1_">
</g>
<g id="icons">
	<g id="organic-food_2_">
		<circle id="label_5_" fill="#E9F2F1" stroke="#4D5152" stroke-width="4" stroke-miterlimit="10" cx="129.5" cy="144.06" r="75"/>
		<g id="leaves_fork_2_">
			<g>
				<path fill="#A66A6A" stroke="#4D5152" stroke-width="4" stroke-miterlimit="10" d="M136.905,112.454L136.905,112.454
					c-4.282,4.286-11.23,4.286-15.515,0c-11.556-11.557,7.287-32.171,7.287-32.171S150.485,98.877,136.905,112.454z"/>
				<g>
					<path fill="#A66A6A" stroke="#4D5152" stroke-width="4" stroke-miterlimit="10" d="M103.44,147.104L103.44,147.104
						c6.06,0,10.972-4.912,10.972-10.972c0-16.344-30.173-19.201-30.173-19.201S84.239,147.104,103.44,147.104z"/>
					
						<line fill="none" stroke="#4D5152" stroke-width="4" stroke-linecap="round" stroke-miterlimit="10" x1="100.836" y1="133.528" x2="111.198" y2="143.889"/>
					
						<line fill="none" stroke="#4D5152" stroke-width="4" stroke-linecap="round" stroke-miterlimit="10" x1="111.671" y1="144.36" x2="128.13" y2="160.818"/>
				</g>
				<g>
					<path fill="#A66A6A" stroke="#4D5152" stroke-width="4" stroke-miterlimit="10" d="M155.56,147.104L155.56,147.104
						c-6.06,0-10.975-4.912-10.975-10.972c0-16.344,30.176-19.201,30.176-19.201S174.761,147.104,155.56,147.104z"/>
					
						<line fill="none" stroke="#4D5152" stroke-width="4" stroke-linecap="round" stroke-miterlimit="10" x1="158.73" y1="133.43" x2="147.801" y2="143.889"/>
					
						<line fill="none" stroke="#4D5152" stroke-width="4" stroke-linecap="round" stroke-miterlimit="10" x1="147.33" y1="144.36" x2="130.498" y2="161.664"/>
				</g>
			</g>
			<g>
				
					<line fill="none" stroke="#4D5152" stroke-width="4" stroke-linecap="round" stroke-miterlimit="10" x1="129.5" y1="102.871" x2="129.5" y2="207.836"/>
				<path fill="none" stroke="#4D5152" stroke-width="4" stroke-linecap="round" stroke-miterlimit="10" d="M142.026,207.836
					v-23.822c0-4.033-5.637-7.331-12.526-7.331l0,0c-6.89,0-12.526,3.298-12.526,7.331v23.822"/>
			</g>
			<g>
				
					<line fill="none" stroke="#4D5152" stroke-width="4" stroke-linecap="round" stroke-miterlimit="10" x1="138.026" y1="143.396" x2="138.026" y2="152.476"/>
				
					<line fill="none" stroke="#4D5152" stroke-width="4" stroke-linecap="round" stroke-miterlimit="10" x1="149.321" y1="155.133" x2="137.584" y2="155.133"/>
			</g>
			<g>
				
					<line fill="none" stroke="#4D5152" stroke-width="4" stroke-linecap="round" stroke-miterlimit="10" x1="120.976" y1="143.396" x2="120.976" y2="152.476"/>
				
					<line fill="none" stroke="#4D5152" stroke-width="4" stroke-linecap="round" stroke-miterlimit="10" x1="109.682" y1="155.133" x2="121.419" y2="155.133"/>
			</g>
			<g>
				
					<line fill="none" stroke="#4D5152" stroke-width="4" stroke-linecap="round" stroke-miterlimit="10" x1="121.356" y1="124.077" x2="127.777" y2="130.495"/>
				
					<line fill="none" stroke="#4D5152" stroke-width="4" stroke-linecap="round" stroke-miterlimit="10" x1="137.644" y1="124.389" x2="129.345" y2="132.688"/>
			</g>
		</g>
	</g>
</g>
<g id="titles">
</g>
<g id="header_1_">
</g>
</svg>
